<?xml version="1.0" encoding="UTF-8"?>
<svg id="Layer_1" xmlns="http://www.w3.org/2000/svg" version="1.1" viewBox="0 0 135 30">
  <!-- Generator: Adobe Illustrator 30.0.0, SVG Export Plug-In . SVG Version: 2.1.1 Build 123)  -->
  <defs>
    <style>
      .st0, .st1 {
        fill: #fff;
      }

      .st1 {
        font-family: MongolianBaiti, 'Mongolian Baiti';
        font-size: 37.26px;
        stroke: #fff;
        stroke-miterlimit: 10;
        stroke-width: .5px;
      }

      .st2 {
        fill: #484759;
      }
    </style>
  </defs>
  <path class="st2" d="M.1,72.75c-.08-.38-.08-.79,0-1.22,1.17-.1,2-.22,2.51-.34.53-.13.86-.38.99-.76.15-.41.23-1.05.23-1.94v-17.67c0-1.06-.06-1.82-.19-2.28-.13-.46-.46-.75-.99-.87-.53-.15-1.39-.28-2.58-.38-.08-.38-.08-.79,0-1.22.51,0,1.13.01,1.86.04.76,0,1.51.01,2.24.04h3.53c.73-.03,1.47-.04,2.2-.04.76-.03,1.37-.04,1.82-.04.08.38.08.79,0,1.22-1.17.1-2.01.22-2.55.34-.53.13-.86.39-.99.8-.13.38-.19,1.01-.19,1.9v7.49h13.68v-6.99c0-1.06-.06-1.82-.19-2.28-.13-.46-.44-.75-.95-.87-.51-.15-1.36-.28-2.55-.38-.05-.38-.05-.79,0-1.22.48,0,1.09.01,1.82.04.73,0,1.47.01,2.2.04h3.61c.71-.03,1.42-.04,2.13-.04.73-.03,1.36-.04,1.86-.04.05.38.05.79,0,1.22-1.19.1-2.05.22-2.58.34-.53.13-.86.39-.99.8-.13.38-.19,1.01-.19,1.9v17.67c0,1.04.06,1.8.19,2.28.13.46.44.76.95.91.53.13,1.41.24,2.62.34.05.43.05.84,0,1.22-.53,0-1.17-.01-1.9-.04h-2.2c-.71-.03-1.3-.04-1.79-.04-.46,0-1.04.01-1.75.04h-2.13c-.71.03-1.32.04-1.82.04-.08-.38-.08-.79,0-1.22,1.17-.1,2-.22,2.51-.34.51-.13.82-.38.95-.76.13-.41.19-1.05.19-1.94v-9.01H8v8.51c0,1.06.06,1.82.19,2.28s.44.76.95.91c.53.13,1.39.24,2.58.34.05.43.05.84,0,1.22-.51,0-1.13-.01-1.86-.04h-2.2c-.71-.03-1.3-.04-1.79-.04-.46,0-1.05.01-1.79.04H1.92c-.71.03-1.32.04-1.82.04Z"/>
  <path class="st2" d="M37.1,73.17c-1.65,0-2.93-.48-3.84-1.44-.89-.99-1.33-2.41-1.33-4.26v-7.68c0-.99-.05-1.72-.15-2.2-.08-.48-.32-.82-.72-1.03-.38-.2-1.04-.37-1.98-.49-.13-.33-.13-.65,0-.95,1.09-.15,2.13-.32,3.12-.49,1.01-.18,2.03-.39,3.04-.65l.57.27c-.03.79-.05,1.53-.08,2.24v9.61c0,1.52.23,2.66.68,3.42.48.73,1.41,1.1,2.77,1.1.76,0,1.47-.16,2.13-.49.68-.35,1.33-.86,1.94-1.52v-8.82c0-.99-.05-1.72-.15-2.2-.08-.48-.32-.82-.72-1.03-.38-.2-1.04-.37-1.98-.49-.08-.33-.08-.65,0-.95,1.09-.15,2.13-.32,3.12-.49,1.01-.18,2.04-.39,3.08-.65l.57.27c-.03.79-.05,1.53-.08,2.24v11.78c0,.76.04,1.33.11,1.71.1.38.35.66.76.84.43.15,1.13.28,2.09.38.03.3.03.62,0,.95-1.09.1-2.13.23-3.12.38-.99.15-1.95.34-2.89.57l-.61-.27-.08-2.66c-2.1,2-4.19,3-6.27,3Z"/>
  <path class="st2" d="M64.58,73.21l-.61-.27-.15-2.62c-.89.96-1.8,1.68-2.74,2.17-.91.46-1.93.68-3.04.68-1.57,0-2.95-.42-4.14-1.25-1.17-.86-2.06-1.98-2.7-3.34s-.95-2.85-.95-4.45c0-1.85.39-3.53,1.18-5.05.81-1.52,1.94-2.74,3.38-3.65,1.47-.94,3.18-1.41,5.13-1.41.58,0,1.19.05,1.82.15.63.08,1.29.22,1.98.42v-4.86c0-.79-.08-1.37-.23-1.75-.15-.41-.46-.68-.91-.84-.43-.18-1.09-.3-1.98-.38-.08-.33-.08-.67,0-1.03,1.01-.13,2.05-.32,3.12-.57,1.06-.28,2.15-.66,3.27-1.14l.65.23c-.03.56-.05,1.19-.08,1.9v21.17c0,.96.04,1.68.11,2.17.08.48.3.82.68,1.03.38.18,1.03.34,1.94.49.08.33.08.67,0,1.03-1.01.15-2,.32-2.96.49-.96.18-1.89.41-2.77.68ZM63.78,57.82c-1.09-1.49-2.52-2.24-4.29-2.24s-3.07.65-3.95,1.94c-.89,1.27-1.33,3.03-1.33,5.28,0,1.32.18,2.58.53,3.8.35,1.22.94,2.22,1.75,3,.81.79,1.89,1.18,3.23,1.18,1.7,0,3.05-.73,4.07-2.2v-10.75Z"/>
  <path class="st2" d="M73.16,66.71c.38,1.67.99,2.95,1.82,3.84.84.86,1.91,1.29,3.23,1.29.99,0,1.82-.23,2.51-.68.68-.48,1.03-1.23,1.03-2.24,0-.76-.19-1.37-.57-1.82-.35-.46-.86-.84-1.52-1.14-.63-.33-1.36-.66-2.17-.99-.94-.38-1.82-.79-2.66-1.22-.81-.46-1.48-1.01-2.01-1.67-.51-.68-.76-1.56-.76-2.62,0-1.22.32-2.22.95-3,.66-.81,1.49-1.42,2.51-1.82,1.04-.41,2.14-.61,3.31-.61.58,0,1.17.04,1.75.11.58.08.9.11.95.11.51.08.98.13,1.41.15h.84c.1,0,.23-.01.38-.04,0,.81.01,1.63.04,2.47.03.84.08,1.72.15,2.66h-.15c-.23.03-.44.05-.65.08-.18,0-.35-.01-.53-.04-.33-1.42-.82-2.44-1.48-3.08-.63-.66-1.53-.99-2.7-.99-1.04,0-1.87.23-2.51.68-.61.46-.91,1.09-.91,1.9,0,.66.2,1.2.61,1.63.41.41.9.75,1.48,1.03.58.28,1.14.52,1.67.72.99.38,1.93.81,2.81,1.29.91.46,1.65,1.05,2.2,1.79.58.73.87,1.72.87,2.96,0,1.32-.34,2.41-1.03,3.27-.66.84-1.51,1.46-2.55,1.86-1.04.38-2.13.57-3.27.57-.66,0-1.32-.05-1.98-.15-.63-.1-.98-.15-1.03-.15s-.27-.03-.65-.08c-.35-.05-.76-.1-1.22-.15-.43-.05-.81-.08-1.14-.08,0-.79-.04-1.66-.11-2.62-.05-.96-.11-2.03-.19-3.19h.19c.23-.03.42-.04.57-.04.18-.03.34-.03.49,0Z"/>
  <path class="st2" d="M96.03,73.17c-1.85,0-3.47-.39-4.86-1.18-1.37-.81-2.43-1.91-3.19-3.31-.76-1.42-1.14-3.04-1.14-4.86,0-1.98.39-3.7,1.18-5.17.81-1.47,1.94-2.61,3.38-3.42,1.44-.81,3.1-1.22,4.98-1.22s3.46.41,4.83,1.22c1.37.81,2.43,1.93,3.19,3.34.76,1.42,1.14,3.03,1.14,4.83s-.4,3.52-1.22,5.02c-.78,1.47-1.89,2.63-3.31,3.5-1.42.84-3.08,1.25-4.98,1.25ZM91.13,63.37c0,2.58.42,4.64,1.25,6.16.86,1.49,2.14,2.24,3.84,2.24s2.86-.71,3.72-2.13c.86-1.44,1.29-3.37,1.29-5.78,0-2.56-.43-4.6-1.29-6.12-.86-1.52-2.12-2.28-3.76-2.28s-2.88.7-3.76,2.09c-.86,1.39-1.29,3.33-1.29,5.81Z"/>
  <path class="st2" d="M117.7,72.75c-.05-.41-.05-.8,0-1.18.79-.05,1.37-.13,1.75-.23.38-.13.63-.38.76-.76.13-.38.19-.99.19-1.82v-7.68c0-1.52-.24-2.65-.72-3.38-.46-.76-1.38-1.14-2.77-1.14-.74,0-1.44.14-2.13.42-.68.25-1.43.75-2.24,1.48v9.92c0,.99.05,1.7.15,2.13.13.43.38.71.76.84.38.1.97.18,1.79.23.05.38.05.77,0,1.18-.71,0-1.46-.01-2.24-.04-.76-.03-1.58-.04-2.47-.04-.81,0-1.61.01-2.39.04-.79.03-1.56.04-2.32.04-.08-.41-.08-.8,0-1.18.86-.05,1.5-.13,1.9-.23.4-.13.67-.38.8-.76.13-.38.19-.99.19-1.82v-8.51c0-.99-.05-1.72-.15-2.2-.08-.48-.32-.81-.72-.99-.38-.2-1.04-.37-1.98-.49-.08-.35-.08-.68,0-.99,2.18-.43,4.18-1.01,6-1.75l.65.23v2.85c1.17-1.06,2.31-1.81,3.42-2.24,1.11-.43,2.18-.65,3.19-.65,1.67,0,2.95.49,3.84,1.48s1.33,2.41,1.33,4.26v8.63c0,.99.05,1.7.15,2.13.13.43.38.71.76.84.38.1.99.18,1.82.23.05.38.05.77,0,1.18-.76,0-1.51-.01-2.24-.04-.71-.03-1.54-.04-2.51-.04s-1.76.01-2.47.04c-.68.03-1.38.04-2.09.04Z"/>
  <path class="st0" d="M128.47,26.64c0-.79.27-1.44.8-1.98.53-.56,1.18-.84,1.94-.84.86,0,1.55.29,2.05.87.53.56.8,1.2.8,1.94s-.27,1.42-.8,1.98c-.51.56-1.19.84-2.05.84-.76,0-1.41-.27-1.94-.8-.53-.56-.8-1.23-.8-2.01Z"/>
  <text class="st1" transform="translate(-1.22 28.67)"><tspan x="0" y="0">Salomon</tspan></text>
</svg>